<svg width="36" height="37" viewBox="0 0 36 37" fill="none" xmlns="http://www.w3.org/2000/svg">
<rect y="0.0141602" width="36" height="36" rx="10" fill="#62AF00"/>
<path d="M26.4443 14.3953H14.3809C13.0484 14.3953 11.9683 15.4755 11.9683 16.8079V24.0459C11.9683 25.3784 13.0484 26.4586 14.3809 26.4586H26.4443C27.7767 26.4586 28.8569 25.3784 28.8569 24.0459V16.8079C28.8569 15.4755 27.7767 14.3953 26.4443 14.3953Z" stroke="white" stroke-linecap="round" stroke-linejoin="round"/>
<path d="M20.4127 22.8395C21.7451 22.8395 22.8253 21.7593 22.8253 20.4268C22.8253 19.0943 21.7451 18.0142 20.4127 18.0142C19.0802 18.0142 18 19.0943 18 20.4268C18 21.7593 19.0802 22.8395 20.4127 22.8395Z" stroke="white" stroke-linecap="round" stroke-linejoin="round"/>
<path d="M24.0317 14.3949V11.9822C24.0317 11.3424 23.7775 10.7287 23.3251 10.2762C22.8726 9.82377 22.2589 9.56958 21.6191 9.56958H9.55573C8.91585 9.56958 8.30218 9.82377 7.84972 10.2762C7.39726 10.7287 7.14307 11.3424 7.14307 11.9822V19.2202C7.14307 19.8601 7.39726 20.4738 7.84972 20.9263C8.30218 21.3787 8.91585 21.6329 9.55573 21.6329H11.9684" stroke="white" stroke-linecap="round" stroke-linejoin="round"/>
</svg>
