<svg width="36" height="37" viewBox="0 0 36 37" fill="none" xmlns="http://www.w3.org/2000/svg">
<rect y="0.0141602" width="36" height="36" rx="10" fill="#00BE91"/>
<path d="M16.9369 8.22119L26.7579 18.0423C27.0264 18.3424 27.1748 18.7309 27.1748 19.1335C27.1748 19.5361 27.0264 19.9246 26.7579 20.2247L20.2106 26.7721C19.9105 27.0405 19.522 27.1889 19.1193 27.1889C18.7167 27.1889 18.3282 27.0405 18.0281 26.7721L8.20703 16.951V12.5861C8.20703 11.4285 8.66691 10.3182 9.48549 9.49965C10.3041 8.68107 11.4143 8.22119 12.572 8.22119H16.9369Z" stroke="white" stroke-linecap="round" stroke-linejoin="round"/>
<path d="M14.7547 16.9511C15.9601 16.9511 16.9372 15.974 16.9372 14.7686C16.9372 13.5633 15.9601 12.5862 14.7547 12.5862C13.5494 12.5862 12.5723 13.5633 12.5723 14.7686C12.5723 15.974 13.5494 16.9511 14.7547 16.9511Z" stroke="white" stroke-linecap="round" stroke-linejoin="round"/>
</svg>
