<svg width="36" height="37" viewBox="0 0 36 37" fill="none" xmlns="http://www.w3.org/2000/svg">
<rect y="0.0141602" width="36" height="36" rx="10" fill="#FF9356"/>
<path d="M11.707 18.0141C13.0224 18.0141 14.0888 16.9477 14.0888 15.6323C14.0888 14.3169 13.0224 13.2505 11.707 13.2505C10.3916 13.2505 9.3252 14.3169 9.3252 15.6323C9.3252 16.9477 10.3916 18.0141 11.707 18.0141Z" stroke="white" stroke-linecap="round" stroke-linejoin="round"/>
<path d="M11.707 8.48706V13.2507" stroke="white" stroke-linecap="round" stroke-linejoin="round"/>
<path d="M11.707 18.0142V27.5414" stroke="white" stroke-linecap="round" stroke-linejoin="round"/>
<path d="M22.2934 25.1596C23.6089 25.1596 24.6752 24.0932 24.6752 22.7778C24.6752 21.4624 23.6089 20.396 22.2934 20.396C20.978 20.396 19.9116 21.4624 19.9116 22.7778C19.9116 24.0932 20.978 25.1596 22.2934 25.1596Z" stroke="white" stroke-linecap="round" stroke-linejoin="round"/>
<path d="M22.293 8.48706V20.3961" stroke="white" stroke-linecap="round" stroke-linejoin="round"/>
<path d="M22.293 25.1594V27.5412" stroke="white" stroke-linecap="round" stroke-linejoin="round"/>
</svg>
